<svg width="519" height="450" viewBox="0 0 519 450" fill="none" xmlns="http://www.w3.org/2000/svg">
<path d="M247.463 147.993C247.835 142.329 251.869 137.592 257.418 136.305L380.674 107.707C385.568 106.571 390.702 108.347 393.864 112.268L477.708 216.251C481.179 220.555 481.561 226.549 478.661 231.208L403.404 352.124C400.539 356.728 395.08 359.045 389.728 357.928L246.951 328.142C240.557 326.808 236.104 320.982 236.529 314.508L247.463 147.993Z" fill="#07C1DE"/>
<path d="M87.0904 229.462C84.0577 224.912 84.1597 219.088 87.3505 214.611L162.783 108.786C166.989 102.885 175.277 101.018 181.81 104.5L381.15 210.72C390.658 215.787 390.909 228.652 381.607 234.118L184.342 350.016C177.618 353.967 168.803 352.065 164.598 345.755L87.0904 229.462Z" fill="#FD7D12" fill-opacity="0.6"/>
<path fill-rule="evenodd" clip-rule="evenodd" d="M250.52 141.24L380.946 210.63C390.542 215.735 390.965 228.598 381.715 234.015L236.429 319.086L247.425 148.76C247.609 145.913 248.737 143.302 250.52 141.24Z" fill="white"/>
<path d="M312.948 200.933H265.182C261.898 200.933 259.241 203.296 259.241 206.183L259.212 237.683C259.212 240.571 261.898 242.933 265.182 242.933H312.948C316.232 242.933 318.919 240.571 318.919 237.683V206.183C318.919 203.296 316.232 200.933 312.948 200.933ZM312.948 211.433L289.065 224.558L265.182 211.433V206.183L289.065 219.308L312.948 206.183V211.433Z" fill="#FD7D12"/>
</svg>
