<svg width="27" height="27" viewBox="0 0 27 27" fill="none" xmlns="http://www.w3.org/2000/svg">
<path fill-rule="evenodd" clip-rule="evenodd" d="M13.5 0C6.04419 0 0 6.04419 0 13.5C0 20.9558 6.04419 27 13.5 27C20.9558 27 27 20.9558 27 13.5C27 6.04419 20.9558 0 13.5 0ZM19.5 8C20.325 8 21 8.67505 21 9.5V18.5C21 19.325 20.325 20 19.5 20H7.5C6.67505 20 6 19.325 6 18.5V9.5C6 8.67505 6.67505 8 7.5 8H19.5ZM13.5 13.25L19.5 9.5H7.5L13.5 13.25ZM13.5 14.75L7.5 11V18.5H19.5V11L13.5 14.75Z" fill="#656464"/>
</svg>
