<svg width="100" height="100" viewBox="0 0 100 100" fill="none" xmlns="http://www.w3.org/2000/svg">
<path d="M50 53.9062C46.7691 53.9062 44.1406 56.5348 44.1406 59.7656C44.1406 62.9965 46.7691 65.625 50 65.625C53.2309 65.625 55.8594 62.9965 55.8594 59.7656C55.8594 56.5348 53.2309 53.9062 50 53.9062ZM50 61.7188C48.923 61.7188 48.0469 60.8426 48.0469 59.7656C48.0469 58.6887 48.923 57.8125 50 57.8125C51.077 57.8125 51.9531 58.6887 51.9531 59.7656C51.9531 60.8426 51.077 61.7188 50 61.7188Z" fill="#07C1DE"/>
<path d="M50 44.1406C47.8168 44.1406 45.7057 44.5818 43.7258 45.4521C42.7383 45.8863 42.2896 47.0387 42.7236 48.0262C43.1576 49.0137 44.3102 49.4621 45.2977 49.0283C46.7791 48.3771 48.3613 48.0469 50 48.0469C56.4617 48.0469 61.7188 53.3039 61.7188 59.7656C61.7188 66.2273 56.4617 71.4844 50 71.4844C43.5383 71.4844 38.2812 66.2273 38.2812 59.7656C38.2812 59.6988 38.2811 59.6336 38.2826 59.5668C38.3076 58.4885 37.4537 57.5939 36.3754 57.5689C35.2953 57.542 34.4025 58.3977 34.3775 59.4762C34.3752 59.5734 34.375 59.6684 34.375 59.7656C34.375 68.3813 41.3844 75.3906 50 75.3906C58.6156 75.3906 65.625 68.3813 65.625 59.7656C65.625 51.15 58.6156 44.1406 50 44.1406Z" fill="#07C1DE"/>
<path d="M50 14.8438C48.9213 14.8438 48.0469 15.7182 48.0469 16.7969V28.5156C48.0469 29.5943 48.9213 30.4688 50 30.4688C51.0787 30.4688 51.9531 29.5943 51.9531 28.5156V16.7969C51.9531 15.7182 51.0787 14.8438 50 14.8438Z" fill="#07C1DE"/>
<path d="M28.1799 29.3238L19.8948 21.0387C19.1321 20.276 17.8953 20.276 17.1324 21.0387C16.3698 21.8014 16.3698 23.0381 17.1324 23.801L25.4176 32.0861C26.1803 32.8488 27.4172 32.849 28.1799 32.0861C28.9426 31.3234 28.9426 30.0867 28.1799 29.3238Z" fill="#07C1DE"/>
<path d="M82.8675 21.0387C82.1048 20.276 80.8681 20.276 80.1052 21.0387L71.8201 29.3238C71.0574 30.0865 71.0574 31.3232 71.8201 32.0861C72.5826 32.8488 73.8195 32.849 74.5824 32.0861L82.8675 23.801C83.6302 23.0383 83.6302 21.8016 82.8675 21.0387Z" fill="#07C1DE"/>
<path d="M99.5108 60.0996C87.1035 46.0529 68.6809 34.375 50 34.375C31.3166 34.375 12.8942 46.0559 0.489271 60.0996C-0.224791 60.9082 -0.148229 62.1424 0.66017 62.8564C1.46876 63.5705 2.70314 63.4939 3.41701 62.6855C3.83322 62.2143 4.25958 61.7447 4.69142 61.2781C14.3428 75.8609 31.8385 85.1562 50 85.1562C68.1615 85.1562 85.6572 75.8609 95.3086 61.2781C95.7404 61.7449 96.1668 62.2145 96.583 62.6855C97.2947 63.4914 98.5289 63.5727 99.3399 62.8564C100.148 62.1424 100.225 60.908 99.5108 60.0996ZM50 81.25C32.8291 81.25 16.3143 72.3283 7.48263 58.4023C14.4412 51.5838 30.5197 38.2812 50 38.2812C69.4805 38.2812 85.5588 51.5838 92.5174 58.4022C83.6858 72.3283 67.1709 81.25 50 81.25Z" fill="#07C1DE"/>
</svg>
