<svg width="130" height="130" viewBox="0 0 130 130" fill="none" xmlns="http://www.w3.org/2000/svg">
<rect width="130" height="130" rx="65" fill="#FD7D12" fill-opacity="0.1"/>
<path d="M42.312 92.1523C45.1394 92.1523 47.4518 89.786 47.4669 86.8586C47.4669 83.9527 45.1545 81.5882 42.312 81.5882C39.4695 81.5882 37.1571 83.9527 37.1571 86.8771C37.1722 89.786 39.4846 92.1523 42.312 92.1523ZM42.312 84.1136C43.7921 84.1136 44.9965 85.3449 44.9965 86.8635C44.9887 88.387 43.7842 89.6269 42.312 89.6269C40.8398 89.6269 39.6353 88.387 39.6275 86.8586C39.6275 85.3449 40.8319 84.1136 42.312 84.1136Z" fill="#FD7D12"/>
<path d="M94.6942 91.7202C97.7961 91.7202 100.32 89.135 100.32 85.9573C100.32 82.7925 97.7961 80.2177 94.6942 80.2177C91.5912 80.2177 89.0683 82.7983 89.0683 85.9573C89.0683 89.1652 91.6135 91.7202 94.6942 91.7202ZM94.6942 82.7431C96.4342 82.7431 97.8498 84.1853 97.8498 85.9573C97.8498 87.7422 96.4342 89.1948 94.6942 89.1948C92.965 89.1948 91.5387 87.7651 91.5387 85.9573C91.5387 84.1617 92.9835 82.7431 94.6942 82.7431Z" fill="#FD7D12"/>
<path d="M59.1728 67.8606H49.0065V70.3861H59.1728V67.8606Z" fill="#FD7D12"/>
<path d="M61.2935 73.4574H46.8868V75.9829H61.2935V73.4574Z" fill="#FD7D12"/>
<path d="M38.3248 66.7031C33.8077 70.0927 30.4039 74.9312 28.7575 80.5385L27.6731 84.2268C27.1088 86.1829 28.5277 88.1333 30.5174 88.1333L33.7255 88.1266C34.1054 90.8192 35.6602 93.1219 37.8408 94.4746H29.7023C29.005 94.4746 28.4396 95.0399 28.4396 95.7373C28.4396 96.4347 29.005 97 29.7023 97H102.21C102.907 97 103.473 96.4347 103.473 95.7373C103.473 95.0399 102.907 94.4746 102.21 94.4746H99.4168C102.307 92.7852 104.264 89.6032 104.264 85.9562C104.264 80.562 99.971 76.1739 94.6943 76.1739C92.6948 76.1739 90.8137 76.813 89.2 77.9786H86.8688C88.8945 75.7005 93.5222 72.5415 102.121 76.261C102.766 76.54 103.53 76.274 103.826 75.6364C104.115 75.0142 103.851 74.2716 103.223 73.9963C96.7958 71.1807 92.1577 71.8107 88.9878 73.3707L94.9657 62.4845L94.3064 60.6229C96.4964 59.8226 98.0604 57.702 98.0604 55.1986C98.0604 52.0203 95.526 49.435 92.4109 49.435H90.3589L88.7582 44.9037C88.617 44.5041 88.2392 44.2368 87.8153 44.2368H78.3941C77.6968 44.2368 77.1314 44.8022 77.1314 45.4995C77.1314 46.1969 77.6968 46.7622 78.3941 46.7622H86.0806C86.5045 46.7622 86.8809 47.0254 87.022 47.4252C88.0728 50.4018 92.298 62.3705 92.2577 62.2563L83.6247 77.9786H68.5032C67.2372 77.9786 66.2071 76.9255 66.2071 75.6313C66.2071 68.1583 66.2071 64.4537 66.2071 61.5411H66.168C65.8086 58.0762 62.9341 55.3675 59.4509 55.3675H51.1405C47.415 55.3675 44.3844 58.4657 44.3844 62.2742V63.3287C43.1394 63.8175 41.9387 64.3948 40.7952 65.0642V54.8768H50.9928V32C42.0646 32 34.7855 32 26 32V54.8768H38.3248V66.7031ZM92.4109 51.9604C95.9593 51.9604 96.8286 57.0615 93.4754 58.2721L91.2499 51.9604H92.4109ZM36.0963 86.8589C36.0963 83.355 38.8845 80.504 42.312 80.504C45.739 80.504 48.5272 83.3539 48.5282 86.8687C48.5169 90.3805 45.7293 93.2371 42.312 93.2371C38.8941 93.2371 36.1059 90.3794 36.0963 86.8589ZM46.7822 94.4746C48.9583 93.1241 50.5114 90.8256 50.8963 88.1333H85.3695C85.9733 90.8731 87.6741 93.142 89.9594 94.4746H46.7822ZM101.794 85.9562C101.794 89.9712 98.6092 93.2371 94.6943 93.2371C90.7508 93.2371 87.5956 89.9685 87.5956 85.9562C87.5956 81.9253 90.7847 78.6993 94.6943 78.6993C98.6092 78.6993 101.794 81.9548 101.794 85.9562ZM68.5032 80.504H86.7428C85.8062 81.9253 85.1951 83.7302 85.1312 85.6079H50.9131C50.3182 81.3158 46.6649 77.9786 42.312 77.9786C38.0226 77.9786 34.3219 81.2426 33.7127 85.6079H30.5174C30.1717 85.6079 29.9473 85.2698 30.0403 84.9481L31.1235 81.2654C34.0742 71.2144 43.177 64.0666 53.7303 64.0666H63.7367V75.6313C63.7367 78.3183 65.8748 80.504 68.5032 80.504ZM63.677 61.5411H56.5312V57.893H59.4509C61.5697 57.893 63.3344 59.4732 63.677 61.5411ZM46.8547 62.2742C46.8547 59.8586 48.7775 57.893 51.1405 57.893H54.0608V61.5411H53.7303C51.4548 61.5411 48.8846 61.9123 46.8547 62.4826V62.2742ZM40.405 34.5254V38.0682L39.168 37.1162C38.7203 36.7714 38.1014 36.7783 37.6608 37.1328L36.5878 37.9966V34.5254H40.405ZM28.4704 34.5254H34.1174V40.5991C34.1174 41.0825 34.3876 41.524 34.8134 41.7354C35.2491 41.9503 35.7531 41.8841 36.1168 41.5912L38.4418 39.7187L40.8971 41.6078C41.2716 41.8964 41.7728 41.9426 42.1914 41.7293C42.6106 41.5153 42.8753 41.0776 42.8753 40.5991V34.5254H48.5224V52.3513H28.4704V34.5254Z" fill="#FD7D12"/>
<path d="M38.496 48.1533H31.58V50.6787H38.496V48.1533Z" fill="#FD7D12"/>
</svg>
