<svg width="27" height="27" viewBox="0 0 27 27" fill="none" xmlns="http://www.w3.org/2000/svg">
<path d="M16.084 13.5C16.084 14.9271 14.9271 16.084 13.5 16.084C12.0729 16.084 10.916 14.9271 10.916 13.5C10.916 12.0729 12.0729 10.916 13.5 10.916C14.9271 10.916 16.084 12.0729 16.084 13.5Z" fill="#656464"/>
<path d="M19.5428 8.92806C19.4185 8.59147 19.2204 8.2868 18.9629 8.03673C18.7128 7.77924 18.4083 7.58107 18.0715 7.45686C17.7984 7.35077 17.3881 7.22449 16.6323 7.19009C15.8147 7.15281 15.5695 7.14478 13.4997 7.14478C11.4297 7.14478 11.1846 7.1526 10.3672 7.18989C9.61139 7.22449 9.20084 7.35077 8.9279 7.45686C8.5911 7.58107 8.28644 7.77924 8.03657 8.03673C7.77908 8.2868 7.58091 8.59126 7.45649 8.92806C7.3504 9.20121 7.22413 9.61176 7.18973 10.3675C7.15244 11.1849 7.14441 11.4301 7.14441 13.5001C7.14441 15.5699 7.15244 15.815 7.18973 16.6326C7.22413 17.3884 7.3504 17.7988 7.45649 18.0719C7.58091 18.4087 7.77887 18.7132 8.03636 18.9632C8.28644 19.2207 8.5909 19.4189 8.9277 19.5431C9.20084 19.6494 9.61139 19.7757 10.3672 19.8101C11.1846 19.8474 11.4295 19.8552 13.4995 19.8552C15.5698 19.8552 15.8149 19.8474 16.6321 19.8101C17.3879 19.7757 17.7984 19.6494 18.0715 19.5431C18.7476 19.2823 19.282 18.748 19.5428 18.0719C19.6488 17.7988 19.7751 17.3884 19.8097 16.6326C19.847 15.815 19.8548 15.5699 19.8548 13.5001C19.8548 11.4301 19.847 11.1849 19.8097 10.3675C19.7753 9.61176 19.649 9.20121 19.5428 8.92806ZM13.4997 17.4805C11.3012 17.4805 9.5189 15.6985 9.5189 13.4999C9.5189 11.3013 11.3012 9.51926 13.4997 9.51926C15.6981 9.51926 17.4803 11.3013 17.4803 13.4999C17.4803 15.6985 15.6981 17.4805 13.4997 17.4805ZM17.6377 10.2922C17.124 10.2922 16.7075 9.87563 16.7075 9.36189C16.7075 8.84814 17.124 8.43162 17.6377 8.43162C18.1515 8.43162 18.568 8.84814 18.568 9.36189C18.5678 9.87563 18.1515 10.2922 17.6377 10.2922Z" fill="#656464"/>
<path d="M13.5 0C6.0453 0 0 6.0453 0 13.5C0 20.9547 6.0453 27 13.5 27C20.9547 27 27 20.9547 27 13.5C27 6.0453 20.9547 0 13.5 0ZM21.2052 16.696C21.1677 17.5212 21.0365 18.0846 20.8449 18.5777C20.4422 19.619 19.619 20.4422 18.5777 20.8449C18.0848 21.0365 17.5212 21.1675 16.6962 21.2052C15.8695 21.2429 15.6055 21.252 13.5002 21.252C11.3947 21.252 11.1309 21.2429 10.304 21.2052C9.479 21.1675 8.91541 21.0365 8.42246 20.8449C7.90501 20.6502 7.43658 20.3452 7.04931 19.9507C6.65504 19.5636 6.34996 19.095 6.1553 18.5777C5.96372 18.0848 5.8325 17.5212 5.79501 16.6962C5.7569 15.8693 5.74805 15.6053 5.74805 13.5C5.74805 11.3947 5.7569 11.1307 5.79481 10.304C5.8323 9.4788 5.96331 8.91541 6.15488 8.42226C6.34955 7.90501 6.65483 7.43637 7.04931 7.04931C7.43637 6.65483 7.90501 6.34975 8.42226 6.15509C8.91541 5.96352 9.4788 5.8325 10.304 5.79481C11.1307 5.75711 11.3947 5.74805 13.5 5.74805C15.6053 5.74805 15.8693 5.75711 16.696 5.79501C17.5212 5.8325 18.0846 5.96352 18.5777 6.15488C19.095 6.34955 19.5636 6.65483 19.9509 7.04931C20.3452 7.43658 20.6505 7.90501 20.8449 8.42226C21.0367 8.91541 21.1677 9.4788 21.2054 10.304C21.2431 11.1307 21.252 11.3947 21.252 13.5C21.252 15.6053 21.2431 15.8693 21.2052 16.696Z" fill="#656464"/>
</svg>
