<svg width="95" height="179" viewBox="0 0 95 179" fill="none" xmlns="http://www.w3.org/2000/svg">
<path fill-rule="evenodd" clip-rule="evenodd" d="M48.6171 0.0840891C28.6059 1.99131 13.3195 12.2836 7.55947 27.726C-1.42395 51.8111 12.6736 94.9679 41.7773 132.475C44.9787 136.602 50.3427 142.909 50.651 142.909C50.8753 142.909 53.8129 139.844 55.3063 138.052C63.0845 128.72 74.6783 111.142 82.5534 96.7453C85.2028 91.9005 89.5071 83.3686 89.8562 82.2675C89.9233 82.0573 84.6495 79.4481 84.5063 79.6206C84.488 79.6431 84.2284 80.2006 83.9298 80.8605C80.6827 88.0312 74.0982 99.8145 67.8623 109.613C60.9701 120.444 51.0946 134.211 50.545 133.755C49.8979 133.218 43.9526 125.43 41.1765 121.483C23.8147 96.7983 13.4511 72.3512 11.143 50.6369C8.88173 29.3657 17.6659 15.0317 36.8471 8.69155C41.4677 7.16395 47.9139 5.9008 51.0879 5.9008H51.6491L51.6186 2.95832L51.5882 0.0158439L50.6169 0.00121864C50.0825 -0.00731205 49.1825 0.0298583 48.6171 0.0840891ZM49.0229 13.7892C19.5835 16.0925 6.28656 51.8635 27.1246 72.701C45.7331 91.3094 77.658 83.0542 84.8268 57.7789C91.3765 34.687 72.8503 11.9253 49.0229 13.7892ZM55.1875 20.8277C74.8264 23.3247 85.6543 45.3784 75.646 62.4976C64.5134 81.54 36.6686 80.6851 26.6926 60.9944C16.6355 41.1441 33.0455 18.0119 55.1875 20.8277Z" fill="#0699CF"/>
<path fill-rule="evenodd" clip-rule="evenodd" d="M49.3278 25.5683C34.8329 26.9649 25.3194 41.6529 29.9332 55.5123C35.3252 71.7102 56.1005 76.4015 67.9911 64.1063C69.0769 62.9833 70.3851 61.3527 70.3851 61.1224C70.3851 61.056 69.2237 60.4881 67.804 59.8611L65.2222 58.7198L63.7184 60.2297C50.965 73.0379 29.6718 59.9866 35.363 42.8497C39.314 30.9524 54.4431 27.2659 63.4393 36.0081L64.321 36.8648L66.734 35.283L69.1476 33.7011L68.4663 32.9334C63.8226 27.7022 56.4856 24.8786 49.3278 25.5683ZM49.2455 48.2374V61.321H51.5311H53.8161V48.2374V35.1538H51.5311H49.2455V48.2374Z" fill="#FC7C14"/>
<g opacity="0.9">
<path fill-rule="evenodd" clip-rule="evenodd" d="M0 169.625V178.424H5.19946H10.3983V177.852V177.281H5.7704H1.1425V169.054V160.827H0.571558H0V169.625ZM34.9661 163.34V163.912H35.5376H36.1086V163.34V162.769H35.5376H34.9661V163.34ZM14.2834 166.132C10.6859 167.134 8.90725 171.597 10.6646 175.211C12.7619 179.526 18.6974 179.497 20.7594 175.163C23.0645 170.316 19.1008 164.79 14.2834 166.132ZM26.7266 166.134C23.1718 167.114 21.4187 171.654 23.1943 175.281C24.9029 178.772 29.5783 179.553 32.1966 176.785C32.9065 176.034 32.9083 176.023 32.391 175.629L31.9876 175.321L31.3734 175.945C28.4188 178.947 23.6623 176.632 23.655 172.188C23.6477 167.824 28.5735 165.44 31.4612 168.411L31.9614 168.926L32.3782 168.643C32.9248 168.272 32.9114 168.207 32.1339 167.451C30.8128 166.166 28.5815 165.623 26.7266 166.134ZM34.9661 172.196V178.424H35.5376H36.1086V172.196V165.968H35.5376H34.9661V172.196ZM17.4002 167.484C20.512 168.909 21.2609 173.297 18.8315 175.866C16.622 178.202 13.0593 177.529 11.6541 174.511C9.73413 170.387 13.5486 165.721 17.4002 167.484Z" fill="#656464"/>
<path fill-rule="evenodd" clip-rule="evenodd" d="M0 169.625V178.424H5.19946H10.3983V177.852V177.281H5.7704H1.1425V169.054V160.827H0.571558H0V169.625ZM34.9661 163.34V163.912H35.5376H36.1086V163.34V162.769H35.5376H34.9661V163.34ZM14.2834 166.132C10.6859 167.134 8.90725 171.597 10.6646 175.211C12.7619 179.526 18.6974 179.497 20.7594 175.163C23.0645 170.316 19.1008 164.79 14.2834 166.132ZM26.7266 166.134C23.1718 167.114 21.4187 171.654 23.1943 175.281C24.9029 178.772 29.5783 179.553 32.1966 176.785C32.9065 176.034 32.9083 176.023 32.391 175.629L31.9876 175.321L31.3734 175.945C28.4188 178.947 23.6623 176.632 23.655 172.188C23.6477 167.824 28.5735 165.44 31.4612 168.411L31.9614 168.926L32.3782 168.643C32.9248 168.272 32.9114 168.207 32.1339 167.451C30.8128 166.166 28.5815 165.623 26.7266 166.134ZM34.9661 172.196V178.424H35.5376H36.1086V172.196V165.968H35.5376H34.9661V172.196ZM17.4002 167.484C20.512 168.909 21.2609 173.297 18.8315 175.866C16.622 178.202 13.0593 177.529 11.6541 174.511C9.73413 170.387 13.5486 165.721 17.4002 167.484Z" fill="#656464"/>
<path fill-rule="evenodd" clip-rule="evenodd" d="M84.3299 164.262V168.269L83.7712 167.696C79.5546 163.367 72.78 167.726 74.2211 173.842C75.2752 178.312 80.5216 179.962 83.6725 176.813L84.3299 176.156V177.29V178.424H84.9009H85.4724V169.339V160.255H84.9009H84.3299V164.262ZM39.1941 169.625V178.424H39.765H40.3366V174.31V170.197H43.8786H47.4213V169.625V169.054H43.8786H40.3366V165.511V161.969H45.2503H50.1633V161.398V160.827H44.6787H39.1941V169.625ZM53.4428 166.088C49.8056 166.995 47.9478 171.507 49.7039 175.167C51.7866 179.507 57.7453 179.528 59.8012 175.202C62.0752 170.418 58.2224 164.895 53.4428 166.088ZM65.5868 166.221C60.455 168.021 60.0851 175.59 65.0146 177.95C68.7346 179.731 73.0134 176.654 73.0134 172.196C73.0134 168.042 69.1831 164.961 65.5868 166.221ZM90.1003 166.182C88.1194 166.703 87.1079 168.804 87.9951 170.554C88.3948 171.343 88.953 171.69 91.2776 172.596C93.2098 173.349 93.6997 173.846 93.6997 175.053C93.6997 177.541 89.8987 178.02 88.3241 175.731L87.9695 175.216L87.5497 175.467C87.3181 175.605 87.0854 175.756 87.0324 175.802C86.8575 175.954 87.0787 176.361 87.7002 177.033C90.2125 179.745 94.989 178.418 95 175.003C95.0067 173.098 94.1122 172.174 91.2983 171.176C89.2144 170.437 88.4966 169.391 89.2387 168.174C89.8682 167.141 92.1124 167.132 93.2043 168.157L93.4547 168.392L93.9221 168.016C94.479 167.569 94.4711 167.519 93.7637 166.982C92.8661 166.3 91.1088 165.917 90.1003 166.182ZM56.5053 167.514C59.1845 168.788 60.1558 172.515 58.4899 175.13C56.2792 178.6 51.4064 177.663 50.3388 173.563C49.2981 169.568 53.0619 165.876 56.5053 167.514ZM69.049 167.547C71.7131 168.858 72.6624 172.504 71.0184 175.108C68.4745 179.139 62.6973 177.117 62.6973 172.196C62.6973 168.568 66.0859 166.088 69.049 167.547ZM81.5301 167.514C84.0198 168.698 85.0666 172.006 83.7828 174.633C81.8439 178.6 76.4988 177.922 75.3636 173.563C74.321 169.56 78.08 165.873 81.5301 167.514Z" fill="#656464"/>
</g>
</svg>
