<svg width="50" height="50" viewBox="0 0 50 50" fill="none" xmlns="http://www.w3.org/2000/svg">
<path d="M0 25C0 11.1929 11.1929 0 25 0C38.8071 0 50 11.1929 50 25C50 38.8071 38.8071 50 25 50C11.1929 50 0 38.8071 0 25Z" fill="#07C1DE" fill-opacity="0.1"/>
<path d="M35.5264 14.4744H14.4738C13.0264 14.4744 11.8554 15.6586 11.8554 17.106L11.8422 32.8958C11.8422 34.3431 13.0264 35.5274 14.4738 35.5274H35.5264C36.9737 35.5274 38.1579 34.3431 38.1579 32.8958V17.106C38.1579 15.6586 36.9737 14.4744 35.5264 14.4744ZM35.5264 19.7376L25.0001 26.3167L14.4738 19.7376V17.106L25.0001 23.6851L35.5264 17.106V19.7376Z" fill="#07B4D9"/>
</svg>
