<svg width="100" height="100" viewBox="0 0 100 100" fill="none" xmlns="http://www.w3.org/2000/svg">
<path d="M96.71 32.1136C96.5802 31.8541 96.3807 31.6359 96.1339 31.4833C95.8871 31.3308 95.6027 31.25 95.3125 31.25H84.375C83.9606 31.25 83.5631 31.4146 83.2701 31.7076L77.4776 37.5H74.964C74.1428 18.4062 58.3548 3.125 39.0625 3.125C19.2465 3.125 3.125 19.2465 3.125 39.0625C3.12649 44.8652 4.5337 50.5812 7.22622 55.7214C9.91875 60.8616 13.8164 65.273 18.5858 68.5782L15.6345 95.1399C15.6103 95.3583 15.6324 95.5794 15.6994 95.7886C15.7663 95.9979 15.8767 96.1907 16.0233 96.3545C16.1698 96.5182 16.3493 96.6492 16.5499 96.7389C16.7505 96.8286 16.9678 96.875 17.1875 96.875H21.875C22.2193 96.875 22.5539 96.7613 22.8269 96.5516C23.0999 96.3418 23.296 96.0478 23.3847 95.7151L27.242 81.25H50.883L54.7403 95.7151C54.829 96.0478 55.0251 96.3418 55.2981 96.5516C55.5711 96.7613 55.9057 96.875 56.25 96.875H60.9375C61.1572 96.875 61.3745 96.8286 61.5751 96.7389C61.7757 96.6492 61.9552 96.5182 62.1017 96.3545C62.2483 96.1907 62.3587 95.9979 62.4256 95.7886C62.4926 95.5794 62.5147 95.3583 62.4905 95.1399L59.5392 68.5782C64.0905 65.4227 67.8509 61.2578 70.5266 56.4088C73.2024 51.5598 74.721 46.1579 74.964 40.625H77.4776L83.2701 46.4174C83.5631 46.7104 83.9606 46.875 84.375 46.875H95.3125C95.6027 46.875 95.8871 46.7942 96.1339 46.6417C96.3808 46.4891 96.5803 46.2708 96.71 46.0113C96.8398 45.7518 96.8948 45.4612 96.8687 45.1722C96.8427 44.8832 96.7367 44.6072 96.5626 44.375L92.5781 39.0625L96.5626 33.75C96.7366 33.5178 96.8426 33.2417 96.8687 32.9527C96.8947 32.6637 96.8398 32.3732 96.71 32.1136ZM20.6745 93.75H18.9333L21.5254 70.4204C23.0597 71.282 24.6555 72.0293 26.2997 72.6561L20.6745 93.75ZM28.0754 78.125L29.2704 73.6438C35.6732 75.452 42.4518 75.452 48.8546 73.6438L50.0496 78.125H28.0754ZM59.1917 93.75H57.4505L51.8253 72.6562C53.4696 72.0293 55.0653 71.282 56.5996 70.4204L59.1917 93.75ZM39.0625 71.875C20.9696 71.875 6.25 57.1554 6.25 39.0625C6.25 20.9696 20.9696 6.25 39.0625 6.25C56.6316 6.25 71.0185 20.1299 71.8369 37.5H65.5778C64.7661 23.5781 53.1844 12.5 39.0625 12.5C24.416 12.5 12.5 24.416 12.5 39.0625C12.5 53.709 24.416 65.625 39.0625 65.625C53.1844 65.625 64.7661 54.5469 65.5778 40.625H71.8369C71.0185 57.9951 56.6316 71.875 39.0625 71.875ZM56.1782 37.5C55.7761 33.0953 53.6915 29.0152 50.3578 26.1083C47.0242 23.2014 42.6983 21.6915 38.2798 21.8928C33.8614 22.0941 29.6906 23.9909 26.6351 27.1888C23.5795 30.3867 21.8744 34.6395 21.8744 39.0625C21.8744 43.4855 23.5795 47.7383 26.6351 50.9362C29.6906 54.1341 33.8614 56.0309 38.2798 56.2322C42.6983 56.4334 47.0242 54.9236 50.3578 52.0167C53.6915 49.1098 55.7761 45.0297 56.1782 40.625H62.4467C62.0413 46.6921 59.2938 52.3642 54.7845 56.4435C50.2751 60.5227 44.3569 62.6898 38.2796 62.487C32.2024 62.2842 26.4418 59.7274 22.2144 55.3566C17.987 50.9858 15.6238 45.1432 15.6238 39.0625C15.6238 32.9818 17.987 27.1392 22.2144 22.7684C26.4418 18.3976 32.2024 15.8408 38.2796 15.638C44.3569 15.4352 50.2751 17.6023 54.7845 21.6815C59.2938 25.7608 62.0413 31.4329 62.4467 37.5H56.1782ZM46.7178 37.5C46.3306 35.6031 45.2528 33.9175 43.6934 32.77C42.134 31.6225 40.2042 31.095 38.2779 31.2896C36.3517 31.4842 34.5663 32.387 33.2679 33.8232C31.9695 35.2593 31.2506 37.1264 31.2506 39.0625C31.2506 40.9986 31.9695 42.8656 33.2679 44.3018C34.5663 45.7379 36.3517 46.6408 38.2779 46.8354C40.2042 47.03 42.134 46.5025 43.6934 45.355C45.2528 44.2075 46.3306 42.5219 46.7178 40.625H53.0361C52.6368 44.1969 50.8849 47.4803 48.1403 49.8009C45.3958 52.1215 41.8668 53.3032 38.2782 53.1032C34.6896 52.9032 31.3138 51.3368 28.8441 48.7256C26.3744 46.1144 24.9982 42.6567 24.9982 39.0625C24.9982 35.4683 26.3744 32.0106 28.8441 29.3994C31.3138 26.7882 34.6896 25.2218 38.2782 25.0218C41.8668 24.8218 45.3958 26.0035 48.1403 28.3241C50.8849 30.6447 52.6368 33.9281 53.0361 37.5H46.7178ZM39.0625 37.5C38.6481 37.5 38.2507 37.6646 37.9576 37.9576C37.6646 38.2507 37.5 38.6481 37.5 39.0625C37.5 39.4769 37.6646 39.8743 37.9576 40.1674C38.2507 40.4604 38.6481 40.625 39.0625 40.625H43.4812C43.1126 41.6675 42.3873 42.5462 41.4336 43.1057C40.4798 43.6652 39.359 43.8695 38.2691 43.6825C37.1793 43.4955 36.1906 42.9293 35.4779 42.0838C34.7652 41.2384 34.3743 40.1683 34.3743 39.0625C34.3743 37.9567 34.7652 36.8866 35.4779 36.0412C36.1906 35.1957 37.1793 34.6295 38.2691 34.4425C39.359 34.2555 40.4798 34.4598 41.4336 35.0193C42.3873 35.5788 43.1126 36.4575 43.4812 37.5H39.0625ZM89.3749 40L92.1875 43.75H85.0222L81.8972 40.625H85.9375V37.5H81.8972L85.0222 34.375H92.1875L89.3749 38.125C89.1721 38.3955 89.0625 38.7244 89.0625 39.0625C89.0625 39.4006 89.1721 39.7295 89.3749 40Z" fill="#07C1DE"/>
</svg>
