<svg width="130" height="130" viewBox="0 0 130 130" fill="none" xmlns="http://www.w3.org/2000/svg">
<rect width="130" height="130" rx="65" fill="#FD7D12" fill-opacity="0.1"/>
<mask id="path-2-outside-1" maskUnits="userSpaceOnUse" x="32" y="31" width="67" height="67" fill="black">
<rect fill="white" x="32" y="31" width="67" height="67"/>
<path d="M96.9845 95.704H92.5168C93.1934 94.9795 93.6162 94.0148 93.6162 92.9478C93.6162 84.0841 93.6162 59.6037 93.6162 50.7232C93.6162 47.5502 91.0351 44.9691 87.8617 44.9691H78.0555V34.2727C78.0555 33.0197 77.0353 32 75.7824 32H50.363C49.1058 32 48.0823 33.0197 48.0823 34.2727V44.9691H42.7691C39.6008 44.9691 37.0231 47.5502 37.0231 50.7232C37.0231 59.6359 37.0231 84.1376 37.0231 92.9478C37.0231 94.0148 37.445 94.9795 38.12 95.704H33.648C33.2903 95.704 33 95.9942 33 96.352C33 96.7097 33.2903 97 33.648 97C54.5438 97 76.0044 97 96.9845 97C97.3423 97 97.6325 96.7097 97.6325 96.352C97.6325 95.9942 97.3423 95.704 96.9845 95.704ZM77.0531 57.8172C78.0136 57.8172 78.9541 58.604 78.9541 59.7177V60.7374H43.1058V59.7177C43.1058 58.6698 43.9622 57.8172 45.0152 57.8172C55.5496 57.8172 67.336 57.8172 77.0531 57.8172ZM80.3016 50.7493C84.285 50.7493 87.5251 53.9936 87.5251 57.9813C87.5251 61.9643 84.285 65.2043 80.3016 65.2043C80.2849 65.2043 80.2669 65.2019 80.2501 65.2018V62.2062C80.5123 62.2062 80.7249 61.9936 80.7249 61.7313V61.4717C82.0038 61.4112 83.032 60.6941 83.032 59.4067C83.032 58.0588 82.0642 57.6096 80.7595 57.2986H80.7249V55.3804C81.0665 55.4308 81.39 55.5284 81.6976 55.6778C81.9798 55.8149 82.3328 55.7609 82.5149 55.5054C82.6993 55.2468 82.6376 54.8832 82.3563 54.7355C81.8373 54.4629 81.2935 54.3051 80.7249 54.2659C80.7249 54.2659 80.8514 53.9055 80.7249 53.7474C80.5668 53.5498 80.2334 53.5485 80.0769 53.7474C79.9538 53.9039 80.0769 54.2572 80.0769 54.2572C78.718 54.3228 77.6814 55.1943 77.894 56.6469C77.5081 56.5427 77.2674 56.5211 77.0531 56.5211H73.2301C73.935 53.0459 76.981 50.7493 80.3016 50.7493ZM80.0769 57.1171C79.4981 56.927 79.092 56.7542 79.092 56.1926C79.092 55.6655 79.55 55.3977 80.0769 55.3459V57.1171ZM78.9541 64.9883H78.4529H43.1058V62.0335H78.9541V64.9883ZM80.7249 60.3831V58.5427C81.3384 58.7328 81.7878 58.9143 81.7878 59.5018C81.7878 60.0547 81.2694 60.3226 80.7249 60.3831ZM73.3979 52.9701C72.7078 53.9174 72.1199 55.2169 71.8977 56.5211H68.8563C68.6215 53.5286 66.1161 51.164 63.0643 51.164C60.0172 51.164 57.5159 53.5286 57.2815 56.5211H52.7391V40.9005C54.9523 40.6094 56.7099 38.848 57.0001 36.631H69.1377C69.428 38.848 71.1847 40.6094 73.3979 40.9005V52.9701ZM67.5607 56.5211H58.5771C58.8066 54.2438 60.7321 52.4601 63.0643 52.4601C65.4015 52.4601 67.3303 54.2438 67.5607 56.5211ZM43.1058 66.2844H78.3795C78.5702 66.327 78.7609 66.3628 78.9541 66.3928V68.9194H43.1058V66.2844ZM92.3202 70.2155V74.1774H38.3191V70.2155C56.301 70.2155 74.3349 70.2155 92.3202 70.2155ZM87.8617 46.2651C90.3204 46.2651 92.3202 48.2649 92.3202 50.7232V68.9194H80.2501V66.4978C80.2674 66.4979 80.2845 66.5004 80.3016 66.5004C84.9997 66.5004 88.8211 62.6785 88.8211 57.9813C88.8211 53.279 84.9997 49.4533 80.3016 49.4533C79.5295 49.4533 78.7769 49.5537 78.0555 49.752V46.2651H87.8617ZM49.3784 34.2727C49.3784 33.7344 49.8205 33.296 50.363 33.296H75.7824C76.3215 33.296 76.7594 33.7344 76.7594 34.2727C76.7594 37.9309 76.7594 46.4941 76.7594 50.2254C76.0053 50.5689 75.3162 51.032 74.6939 51.5757V40.2947C74.6939 39.9369 74.4036 39.6466 74.0459 39.6466C72.031 39.6466 70.3915 38.003 70.3915 35.983C70.3915 35.6253 70.1013 35.335 69.7435 35.335H56.3943C56.0365 35.335 55.7463 35.6253 55.7463 35.983C55.7463 38.003 54.1068 39.6466 52.0911 39.6466C51.7333 39.6466 51.443 39.9369 51.443 40.2947V56.5211H49.3783C49.3784 48.7153 49.3784 42.0814 49.3784 34.2727ZM42.7691 46.2651H48.0823V56.5211H45.0152C43.2475 56.5211 41.8098 57.9551 41.8098 59.7177C41.8098 59.9052 41.8098 69.5962 41.8098 68.9194H38.3191V50.7232C38.3191 48.2649 40.3155 46.2651 42.7691 46.2651ZM41.0664 95.704C39.5518 95.704 38.3191 94.4674 38.3191 92.9478V75.4734H92.3202V92.9478C92.3202 94.4674 91.0832 95.704 89.5636 95.704H41.0664Z"/>
</mask>
<path d="M96.9845 95.704H92.5168C93.1934 94.9795 93.6162 94.0148 93.6162 92.9478C93.6162 84.0841 93.6162 59.6037 93.6162 50.7232C93.6162 47.5502 91.0351 44.9691 87.8617 44.9691H78.0555V34.2727C78.0555 33.0197 77.0353 32 75.7824 32H50.363C49.1058 32 48.0823 33.0197 48.0823 34.2727V44.9691H42.7691C39.6008 44.9691 37.0231 47.5502 37.0231 50.7232C37.0231 59.6359 37.0231 84.1376 37.0231 92.9478C37.0231 94.0148 37.445 94.9795 38.12 95.704H33.648C33.2903 95.704 33 95.9942 33 96.352C33 96.7097 33.2903 97 33.648 97C54.5438 97 76.0044 97 96.9845 97C97.3423 97 97.6325 96.7097 97.6325 96.352C97.6325 95.9942 97.3423 95.704 96.9845 95.704ZM77.0531 57.8172C78.0136 57.8172 78.9541 58.604 78.9541 59.7177V60.7374H43.1058V59.7177C43.1058 58.6698 43.9622 57.8172 45.0152 57.8172C55.5496 57.8172 67.336 57.8172 77.0531 57.8172ZM80.3016 50.7493C84.285 50.7493 87.5251 53.9936 87.5251 57.9813C87.5251 61.9643 84.285 65.2043 80.3016 65.2043C80.2849 65.2043 80.2669 65.2019 80.2501 65.2018V62.2062C80.5123 62.2062 80.7249 61.9936 80.7249 61.7313V61.4717C82.0038 61.4112 83.032 60.6941 83.032 59.4067C83.032 58.0588 82.0642 57.6096 80.7595 57.2986H80.7249V55.3804C81.0665 55.4308 81.39 55.5284 81.6976 55.6778C81.9798 55.8149 82.3328 55.7609 82.5149 55.5054C82.6993 55.2468 82.6376 54.8832 82.3563 54.7355C81.8373 54.4629 81.2935 54.3051 80.7249 54.2659C80.7249 54.2659 80.8514 53.9055 80.7249 53.7474C80.5668 53.5498 80.2334 53.5485 80.0769 53.7474C79.9538 53.9039 80.0769 54.2572 80.0769 54.2572C78.718 54.3228 77.6814 55.1943 77.894 56.6469C77.5081 56.5427 77.2674 56.5211 77.0531 56.5211H73.2301C73.935 53.0459 76.981 50.7493 80.3016 50.7493ZM80.0769 57.1171C79.4981 56.927 79.092 56.7542 79.092 56.1926C79.092 55.6655 79.55 55.3977 80.0769 55.3459V57.1171ZM78.9541 64.9883H78.4529H43.1058V62.0335H78.9541V64.9883ZM80.7249 60.3831V58.5427C81.3384 58.7328 81.7878 58.9143 81.7878 59.5018C81.7878 60.0547 81.2694 60.3226 80.7249 60.3831ZM73.3979 52.9701C72.7078 53.9174 72.1199 55.2169 71.8977 56.5211H68.8563C68.6215 53.5286 66.1161 51.164 63.0643 51.164C60.0172 51.164 57.5159 53.5286 57.2815 56.5211H52.7391V40.9005C54.9523 40.6094 56.7099 38.848 57.0001 36.631H69.1377C69.428 38.848 71.1847 40.6094 73.3979 40.9005V52.9701ZM67.5607 56.5211H58.5771C58.8066 54.2438 60.7321 52.4601 63.0643 52.4601C65.4015 52.4601 67.3303 54.2438 67.5607 56.5211ZM43.1058 66.2844H78.3795C78.5702 66.327 78.7609 66.3628 78.9541 66.3928V68.9194H43.1058V66.2844ZM92.3202 70.2155V74.1774H38.3191V70.2155C56.301 70.2155 74.3349 70.2155 92.3202 70.2155ZM87.8617 46.2651C90.3204 46.2651 92.3202 48.2649 92.3202 50.7232V68.9194H80.2501V66.4978C80.2674 66.4979 80.2845 66.5004 80.3016 66.5004C84.9997 66.5004 88.8211 62.6785 88.8211 57.9813C88.8211 53.279 84.9997 49.4533 80.3016 49.4533C79.5295 49.4533 78.7769 49.5537 78.0555 49.752V46.2651H87.8617ZM49.3784 34.2727C49.3784 33.7344 49.8205 33.296 50.363 33.296H75.7824C76.3215 33.296 76.7594 33.7344 76.7594 34.2727C76.7594 37.9309 76.7594 46.4941 76.7594 50.2254C76.0053 50.5689 75.3162 51.032 74.6939 51.5757V40.2947C74.6939 39.9369 74.4036 39.6466 74.0459 39.6466C72.031 39.6466 70.3915 38.003 70.3915 35.983C70.3915 35.6253 70.1013 35.335 69.7435 35.335H56.3943C56.0365 35.335 55.7463 35.6253 55.7463 35.983C55.7463 38.003 54.1068 39.6466 52.0911 39.6466C51.7333 39.6466 51.443 39.9369 51.443 40.2947V56.5211H49.3783C49.3784 48.7153 49.3784 42.0814 49.3784 34.2727ZM42.7691 46.2651H48.0823V56.5211H45.0152C43.2475 56.5211 41.8098 57.9551 41.8098 59.7177C41.8098 59.9052 41.8098 69.5962 41.8098 68.9194H38.3191V50.7232C38.3191 48.2649 40.3155 46.2651 42.7691 46.2651ZM41.0664 95.704C39.5518 95.704 38.3191 94.4674 38.3191 92.9478V75.4734H92.3202V92.9478C92.3202 94.4674 91.0832 95.704 89.5636 95.704H41.0664Z" fill="#FD7D12"/>
<path d="M96.9845 95.704H92.5168C93.1934 94.9795 93.6162 94.0148 93.6162 92.9478C93.6162 84.0841 93.6162 59.6037 93.6162 50.7232C93.6162 47.5502 91.0351 44.9691 87.8617 44.9691H78.0555V34.2727C78.0555 33.0197 77.0353 32 75.7824 32H50.363C49.1058 32 48.0823 33.0197 48.0823 34.2727V44.9691H42.7691C39.6008 44.9691 37.0231 47.5502 37.0231 50.7232C37.0231 59.6359 37.0231 84.1376 37.0231 92.9478C37.0231 94.0148 37.445 94.9795 38.12 95.704H33.648C33.2903 95.704 33 95.9942 33 96.352C33 96.7097 33.2903 97 33.648 97C54.5438 97 76.0044 97 96.9845 97C97.3423 97 97.6325 96.7097 97.6325 96.352C97.6325 95.9942 97.3423 95.704 96.9845 95.704ZM77.0531 57.8172C78.0136 57.8172 78.9541 58.604 78.9541 59.7177V60.7374H43.1058V59.7177C43.1058 58.6698 43.9622 57.8172 45.0152 57.8172C55.5496 57.8172 67.336 57.8172 77.0531 57.8172ZM80.3016 50.7493C84.285 50.7493 87.5251 53.9936 87.5251 57.9813C87.5251 61.9643 84.285 65.2043 80.3016 65.2043C80.2849 65.2043 80.2669 65.2019 80.2501 65.2018V62.2062C80.5123 62.2062 80.7249 61.9936 80.7249 61.7313V61.4717C82.0038 61.4112 83.032 60.6941 83.032 59.4067C83.032 58.0588 82.0642 57.6096 80.7595 57.2986H80.7249V55.3804C81.0665 55.4308 81.39 55.5284 81.6976 55.6778C81.9798 55.8149 82.3328 55.7609 82.5149 55.5054C82.6993 55.2468 82.6376 54.8832 82.3563 54.7355C81.8373 54.4629 81.2935 54.3051 80.7249 54.2659C80.7249 54.2659 80.8514 53.9055 80.7249 53.7474C80.5668 53.5498 80.2334 53.5485 80.0769 53.7474C79.9538 53.9039 80.0769 54.2572 80.0769 54.2572C78.718 54.3228 77.6814 55.1943 77.894 56.6469C77.5081 56.5427 77.2674 56.5211 77.0531 56.5211H73.2301C73.935 53.0459 76.981 50.7493 80.3016 50.7493ZM80.0769 57.1171C79.4981 56.927 79.092 56.7542 79.092 56.1926C79.092 55.6655 79.55 55.3977 80.0769 55.3459V57.1171ZM78.9541 64.9883H78.4529H43.1058V62.0335H78.9541V64.9883ZM80.7249 60.3831V58.5427C81.3384 58.7328 81.7878 58.9143 81.7878 59.5018C81.7878 60.0547 81.2694 60.3226 80.7249 60.3831ZM73.3979 52.9701C72.7078 53.9174 72.1199 55.2169 71.8977 56.5211H68.8563C68.6215 53.5286 66.1161 51.164 63.0643 51.164C60.0172 51.164 57.5159 53.5286 57.2815 56.5211H52.7391V40.9005C54.9523 40.6094 56.7099 38.848 57.0001 36.631H69.1377C69.428 38.848 71.1847 40.6094 73.3979 40.9005V52.9701ZM67.5607 56.5211H58.5771C58.8066 54.2438 60.7321 52.4601 63.0643 52.4601C65.4015 52.4601 67.3303 54.2438 67.5607 56.5211ZM43.1058 66.2844H78.3795C78.5702 66.327 78.7609 66.3628 78.9541 66.3928V68.9194H43.1058V66.2844ZM92.3202 70.2155V74.1774H38.3191V70.2155C56.301 70.2155 74.3349 70.2155 92.3202 70.2155ZM87.8617 46.2651C90.3204 46.2651 92.3202 48.2649 92.3202 50.7232V68.9194H80.2501V66.4978C80.2674 66.4979 80.2845 66.5004 80.3016 66.5004C84.9997 66.5004 88.8211 62.6785 88.8211 57.9813C88.8211 53.279 84.9997 49.4533 80.3016 49.4533C79.5295 49.4533 78.7769 49.5537 78.0555 49.752V46.2651H87.8617ZM49.3784 34.2727C49.3784 33.7344 49.8205 33.296 50.363 33.296H75.7824C76.3215 33.296 76.7594 33.7344 76.7594 34.2727C76.7594 37.9309 76.7594 46.4941 76.7594 50.2254C76.0053 50.5689 75.3162 51.032 74.6939 51.5757V40.2947C74.6939 39.9369 74.4036 39.6466 74.0459 39.6466C72.031 39.6466 70.3915 38.003 70.3915 35.983C70.3915 35.6253 70.1013 35.335 69.7435 35.335H56.3943C56.0365 35.335 55.7463 35.6253 55.7463 35.983C55.7463 38.003 54.1068 39.6466 52.0911 39.6466C51.7333 39.6466 51.443 39.9369 51.443 40.2947V56.5211H49.3783C49.3784 48.7153 49.3784 42.0814 49.3784 34.2727ZM42.7691 46.2651H48.0823V56.5211H45.0152C43.2475 56.5211 41.8098 57.9551 41.8098 59.7177C41.8098 59.9052 41.8098 69.5962 41.8098 68.9194H38.3191V50.7232C38.3191 48.2649 40.3155 46.2651 42.7691 46.2651ZM41.0664 95.704C39.5518 95.704 38.3191 94.4674 38.3191 92.9478V75.4734H92.3202V92.9478C92.3202 94.4674 91.0832 95.704 89.5636 95.704H41.0664Z" stroke="#FD7D12" stroke-width="0.9" mask="url(#path-2-outside-1)"/>
</svg>
